P2
50 100
65535
48342 47940 47672 47272 46870 46602 46201 45934 45666 45398 45131 44864 44730 44596 44462 44462 44462 44462 44462 44596 44864 44997 45265 45532 45800 46067 46469 46736 47138 47539 47806 48208 48475 48742 49010 49278 49546 49679 49813 49947 49947 49947 49947 49947 49813 49679 49412 49144 48877 48609 
47138 46870 46469 46201 45800 45398 45131 44864 44596 44328 44061 43794 43660 43526 43526 43392 43392 43526 43660 43794 43927 44061 44328 44596 44864 45131 45532 45800 46201 46469 46870 47138 47539 47806 48074 48208 48475 48609 48742 48877 48877 48877 48877 48742 48609 48475 48208 48074 47806 47405 
45934 45532 45265 44864 44596 44195 43927 43660 43392 43124 42857 42724 42589 42456 42456 42456 42456 42456 42589 42724 42857 43124 43392 43660 43927 44195 44462 44864 45131 45532 45800 46067 46469 46736 47004 47138 47272 47539 47539 47672 47672 47672 47539 47539 47405 47272 47004 46736 46469 46201 
44596 44195 43927 43526 43258 42990 42589 42322 42188 41920 41654 41519 41386 41386 41251 41251 41251 41386 41519 41654 41787 42054 42322 42589 42857 43124 43392 43794 44061 44462 44730 44997 45265 45532 45800 45934 46201 46201 46335 46335 46469 46335 46335 46201 46067 45934 45666 45398 45131 44864 
43124 42857 42589 42188 41920 41654 41251 41118 40850 40583 40449 40315 40181 40181 40047 40047 40181 40181 40315 40449 40717 40984 41118 41386 41654 42054 42322 42589 42990 43258 43526 43794 44061 44328 44596 44730 44864 44997 45131 45131 45131 44997 44997 44864 44730 44462 44328 44061 43794 43526 
41787 41386 41118 40717 40449 40181 39914 39647 39512 39245 39111 38977 38843 38843 38843 38843 38843 38977 39111 39245 39512 39780 39914 40315 40583 40850 41118 41519 41787 42054 42322 42589 42857 43124 43258 43392 43526 43660 43794 43794 43794 43660 43526 43392 43258 43124 42857 42589 42322 42054 
40181 39914 39647 39245 38977 38710 38442 38309 38041 37907 37640 37640 37506 37506 37506 37506 37640 37773 37907 38041 38309 38442 38710 38977 39379 39647 39914 40181 40583 40850 41118 41386 41654 41787 42054 42188 42188 42322 42322 42322 42322 42188 42188 41920 41787 41654 41386 41118 40850 40583 
38710 38442 38041 37773 37506 37239 36971 36703 36570 36435 36302 36169 36035 36035 36169 36169 36302 36435 36570 36703 36971 37239 37506 37773 38041 38309 38710 38977 39245 39512 39780 40047 40315 40449 40583 40717 40850 40850 40984 40850 40850 40717 40583 40449 40315 40047 39780 39512 39245 38977 
37105 36837 36570 36169 35901 35633 35500 35232 35099 34965 34831 34697 34697 34697 34697 34831 34965 35099 35232 35500 35633 35901 36169 36435 36703 37105 37372 37640 37907 38175 38442 38710 38977 39111 39245 39379 39512 39512 39512 39512 39379 39245 39111 38977 38710 38577 38309 38041 37773 37372 
35500 35232 34965 34697 34429 34162 33894 33761 33493 33359 33359 33225 33225 33225 33359 33359 33493 33627 33894 34028 34295 34563 34831 35232 35500 35767 36035 36302 36570 36837 37105 37372 37640 37773 37907 38041 38041 38041 38041 38041 37907 37773 37640 37506 37239 36971 36703 36435 36169 35901 
34028 33627 33359 33092 32824 32557 32423 32155 32022 31888 31754 31754 31754 31754 31888 32022 32155 32289 32557 32690 32958 33225 33493 33894 34162 34429 34697 35099 35365 35633 35767 36035 36169 36435 36570 36570 36570 36570 36570 36570 36435 36302 36169 35901 35633 35500 35232 34831 34563 34295 
32423 32155 31754 31487 31219 31085 30817 30684 30550 30417 30282 30282 30282 30417 30417 30550 30684 30951 31085 31353 31620 31888 32155 32557 32824 33092 33493 33761 34028 34295 34429 34697 34831 34965 35099 35232 35232 35232 35232 35099 34965 34831 34697 34429 34162 33894 33627 33359 33092 32690 
30951 30550 30282 30015 29747 29480 29347 29212 29079 28945 28945 28811 28945 28945 29079 29212 29347 29614 29747 30015 30282 30684 30951 31219 31487 31888 32155 32423 32690 32958 33225 33359 33627 33761 33761 33894 33894 33894 33761 33761 33627 33359 33225 32958 32690 32423 32155 31888 31487 31219 
29480 29079 28811 28543 28276 28009 27875 27741 27607 27473 27473 27473 27473 27607 27741 27875 28009 28276 28410 28811 29079 29347 29614 30015 30282 30550 30951 31219 31487 31754 31888 32155 32289 32423 32557 32557 32557 32557 32423 32289 32155 32022 31754 31487 31219 30951 30684 30417 30015 29747 
28009 27607 27340 27072 26805 26537 26403 26270 26135 26135 26002 26002 26135 26270 26270 26537 26671 26939 27206 27473 27741 28009 28410 28677 29079 29347 29614 30015 30282 30417 30684 30817 31085 31219 31219 31219 31219 31219 31085 30951 30817 30684 30417 30149 29881 29614 29212 28945 28543 28276 
26537 26270 25869 25601 25467 25199 25065 24932 24799 24664 24664 24664 24799 24932 25065 25199 25333 25601 25869 26270 26537 26805 27206 27473 27875 28142 28410 28811 29079 29347 29480 29614 29881 29881 30015 30015 30015 29881 29881 29747 29480 29347 29079 28811 28543 28276 27875 27607 27206 26939 
25199 24932 24531 24263 24129 23862 23728 23594 23461 23327 23327 23461 23461 23594 23728 23995 24129 24397 24664 25065 25333 25735 26002 26403 26671 27072 27340 27607 27875 28142 28410 28543 28677 28811 28811 28811 28811 28811 28677 28543 28276 28142 27875 27607 27206 26939 26537 26270 25869 25601 
23995 23594 23327 23058 22792 22524 22391 22256 22122 22122 22122 22122 22256 22391 22524 22792 22925 23193 23594 23862 24263 24531 24932 25199 25601 25869 26270 26537 26805 27072 27206 27473 27607 27741 27741 27741 27741 27607 27473 27340 27072 26939 26671 26270 26002 25735 25333 24932 24664 24263 
22792 22391 22122 21855 21587 21320 21186 21052 21052 20918 20918 21052 21052 21186 21454 21587 21855 22122 22524 22792 23193 23461 23862 24263 24531 24932 25199 25601 25869 26002 26270 26403 26537 26671 26671 26671 26671 26537 26403 26270 26002 25735 25467 25199 24932 24531 24129 23862 23461 23058 
21722 21320 21052 20785 20517 20250 20116 19982 19848 19848 19848 19848 19982 20116 20384 20517 20785 21052 21454 21855 22122 22524 22925 23193 23594 23995 24263 24531 24932 25065 25333 25467 25601 25735 25735 25735 25735 25601 25467 25199 25065 24799 24531 24129 23862 23461 23058 22792 22391 21988 
20651 20250 19982 19715 19447 19180 19046 18912 18912 18778 18778 18912 19046 19180 19314 19581 19848 20116 20517 20918 21186 21587 21988 22391 22658 23058 23461 23728 23995 24263 24531 24664 24799 24799 24932 24932 24799 24664 24531 24397 24129 23862 23594 23193 22925 22524 22122 21722 21320 21052 
19715 19447 19046 18778 18510 18243 18110 17976 17976 17842 17976 17976 18110 18243 18510 18778 19046 19314 19581 19982 20384 20785 21186 21587 21855 22256 22658 22925 23193 23461 23728 23862 23995 24129 24129 24129 23995 23862 23728 23594 23327 23058 22658 22391 21988 21587 21320 20918 20517 20116 
18912 18510 18243 17976 17708 17440 17307 17173 17040 17040 17040 17173 17307 17440 17708 17976 18243 18510 18912 19180 19581 19982 20384 20785 21186 21587 21988 22256 22524 22792 23058 23193 23327 23461 23461 23461 23327 23193 23058 22792 22524 22256 21988 21587 21320 20918 20517 20116 19715 19314 
18243 17842 17575 17173 16906 16772 16504 16370 16370 16370 16370 16370 16504 16772 16906 17173 17440 17842 18243 18510 18912 19314 19715 20116 20517 20918 21320 21587 21988 22122 22391 22524 22658 22792 22792 22792 22792 22658 22391 22256 21988 21722 21320 21052 20651 20250 19848 19447 19046 18645 
17575 17307 16906 16638 16370 16103 15969 15835 15702 15702 15702 15835 15969 16103 16370 16638 16906 17173 17575 17976 18377 18778 19180 19581 19982 20384 20785 21052 21454 21722 21855 22122 22256 22256 22391 22256 22256 22122 21988 21722 21454 21186 20785 20517 20116 19715 19180 18778 18377 17976 
17173 16772 16370 16103 15835 15568 15434 15300 15167 15167 15167 15300 15300 15568 15835 16103 16370 16638 17040 17440 17842 18243 18778 19180 19581 19982 20384 20651 21052 21320 21454 21722 21855 21855 21988 21855 21855 21722 21587 21320 21052 20785 20384 19982 19581 19180 18778 18377 17976 17575 
16772 16370 15969 15702 15434 15167 14899 14765 14765 14632 14765 14765 14899 15167 15300 15568 15969 16237 16638 17040 17440 17842 18377 18778 19180 19581 19982 20384 20651 20918 21186 21320 21454 21587 21587 21587 21454 21320 21186 20918 20651 20384 19982 19715 19314 18912 18377 17976 17575 17173 
16504 16103 15702 15300 15033 14765 14632 14498 14364 14364 14364 14498 14498 14765 15033 15300 15568 15969 16370 16772 17173 17575 17976 18510 18912 19314 19715 20116 20384 20651 20918 21052 21320 21320 21454 21320 21320 21186 21052 20785 20517 20116 19848 19447 19046 18645 18110 17708 17307 16906 
16237 15835 15434 15167 14899 14632 14364 14230 14096 14096 14096 14230 14364 14498 14765 15033 15300 15702 16103 16504 16906 17307 17842 18243 18645 19180 19581 19848 20250 20517 20785 20918 21186 21186 21320 21320 21186 21052 20918 20651 20384 20116 19715 19314 18912 18510 17976 17575 17173 16638 
16237 15702 15434 15033 14765 14498 14230 14096 13963 13963 13963 13963 14096 14364 14498 14899 15167 15568 15969 16370 16772 17173 17708 18110 18645 19046 19447 19848 20116 20384 20651 20918 21052 21186 21186 21186 21186 21052 20918 20651 20384 19982 19715 19314 18912 18377 17976 17575 17040 16638 
16237 15835 15434 15033 14765 14498 14230 14096 13963 13963 13963 13963 14096 14230 14498 14765 15033 15434 15835 16237 16772 17173 17575 18110 18510 19046 19447 19848 20116 20517 20785 20918 21186 21186 21320 21320 21186 21052 20918 20651 20384 20116 19715 19314 18912 18510 17976 17575 17040 16638 
16370 15835 15434 15033 14765 14498 14230 14096 13963 13963 13963 13963 14096 14230 14498 14765 15033 15434 15835 16237 16772 17173 17708 18110 18645 19046 19447 19848 20250 20517 20785 21052 21186 21320 21454 21454 21320 21320 21052 20785 20651 20250 19848 19447 19046 18645 18110 17708 17173 16772 
16504 16103 15702 15300 14899 14632 14364 14230 14096 13963 13963 14096 14230 14364 14632 14899 15167 15568 15969 16370 16772 17307 17708 18243 18778 19180 19581 19982 20384 20785 21052 21186 21454 21587 21722 21722 21587 21454 21320 21052 20785 20517 20116 19715 19314 18912 18377 17976 17440 16906 
16772 16370 15835 15568 15167 14899 14632 14364 14230 14230 14230 14230 14364 14498 14765 15033 15300 15702 16103 16504 16906 17440 17976 18377 18912 19314 19848 20250 20651 20918 21320 21454 21722 21855 21988 21988 21855 21855 21587 21454 21186 20785 20517 20116 19581 19180 18645 18243 17708 17173 
17173 16638 16237 15835 15434 15167 14899 14765 14632 14498 14498 14498 14632 14765 14899 15167 15568 15835 16237 16772 17173 17708 18110 18645 19180 19581 20116 20517 20918 21320 21587 21855 21988 22256 22256 22256 22256 22122 21988 21855 21587 21186 20918 20517 19982 19581 19046 18645 18110 17575 
17575 17040 16638 16237 15835 15568 15300 15033 14899 14765 14765 14765 14899 15033 15300 15568 15835 16103 16638 17040 17440 17976 18510 18912 19447 19982 20384 20918 21320 21587 21988 22256 22391 22658 22658 22792 22658 22658 22524 22256 21988 21722 21320 20918 20517 19982 19581 19046 18510 18110 
18110 17575 17173 16638 16370 15969 15702 15434 15300 15167 15167 15167 15167 15434 15568 15835 16103 16504 16906 17307 17842 18243 18778 19314 19848 20250 20785 21186 21722 21988 22391 22658 22925 23058 23193 23193 23193 23058 22925 22792 22524 22256 21855 21454 21052 20517 20116 19581 19046 18510 
18645 18110 17708 17173 16772 16504 16237 15969 15835 15702 15568 15568 15702 15835 15969 16237 16504 16906 17307 17708 18243 18645 19180 19715 20250 20785 21186 21722 22122 22524 22792 23193 23327 23594 23728 23728 23728 23728 23594 23327 23058 22792 22391 21988 21587 21186 20651 20116 19581 19046 
19180 18778 18243 17842 17440 17040 16772 16504 16237 16103 16103 16103 16103 16237 16504 16638 17040 17307 17708 18243 18645 19180 19715 20116 20651 21186 21722 22122 22658 23058 23327 23728 23995 24129 24263 24397 24397 24263 24129 23995 23728 23461 23058 22658 22256 21722 21320 20785 20250 19715 
19848 19314 18912 18377 17976 17708 17307 17040 16906 16638 16638 16638 16638 16772 16906 17173 17440 17842 18243 18645 19180 19581 20116 20651 21186 21722 22256 22658 23193 23594 23995 24263 24531 24799 24932 24932 24932 24932 24799 24664 24397 24129 23728 23327 22925 22524 21988 21454 20918 20384 
20517 20116 19581 19046 18645 18243 17976 17708 17440 17307 17173 17173 17173 17307 17440 17708 17976 18377 18778 19180 19581 20116 20651 21186 21722 22256 22792 23193 23728 24129 24531 24799 25065 25333 25467 25601 25601 25601 25467 25333 25065 24799 24531 24129 23594 23193 22658 22122 21587 21052 
21320 20785 20250 19848 19314 18912 18645 18377 18110 17842 17842 17708 17708 17842 17976 18243 18510 18912 19314 19715 20116 20651 21186 21722 22256 22792 23327 23862 24263 24664 25065 25467 25735 26002 26135 26270 26270 26270 26270 26002 25869 25601 25199 24799 24397 23862 23461 22925 22391 21855 
22122 21587 21052 20517 20116 19715 19314 19046 18778 18510 18377 18377 18377 18510 18645 18912 19046 19447 19848 20250 20785 21186 21722 22256 22792 23327 23862 24397 24932 25333 25735 26135 26403 26671 26939 26939 27072 27072 26939 26805 26537 26270 26002 25601 25199 24664 24263 23728 23193 22658 
22792 22256 21722 21320 20785 20384 19982 19715 19447 19180 19046 19046 19046 19046 19180 19447 19715 19982 20384 20785 21320 21855 22391 22925 23461 23995 24531 25065 25601 26002 26403 26805 27072 27340 27607 27741 27741 27741 27741 27607 27340 27072 26805 26403 26002 25467 25065 24531 23995 23327 
23594 23058 22524 21988 21587 21186 20785 20384 20116 19848 19715 19715 19715 19715 19848 20116 20250 20651 21052 21454 21855 22391 22925 23461 23995 24531 25199 25601 26135 26671 27072 27473 27741 28142 28276 28410 28543 28543 28543 28276 28142 27875 27607 27206 26805 26270 25869 25333 24799 24129 
24397 23862 23327 22792 22256 21855 21454 21052 20785 20651 20384 20384 20250 20384 20517 20651 20918 21186 21587 21988 22524 22925 23461 23995 24664 25199 25735 26270 26805 27340 27741 28142 28543 28811 29079 29212 29212 29347 29212 29079 28945 28677 28410 28009 27607 27072 26671 26135 25601 24932 
25199 24664 24129 23594 23058 22658 22256 21855 21587 21320 21052 21052 20918 21052 21052 21320 21454 21855 22122 22658 23058 23594 24129 24664 25199 25735 26403 26939 27473 27875 28410 28811 29212 29480 29747 29881 30015 30015 30015 29881 29747 29480 29212 28811 28410 27875 27473 26939 26403 25735 
26002 25467 24932 24397 23862 23327 22925 22524 22256 21988 21855 21722 21587 21587 21722 21855 22122 22391 22792 23193 23594 24129 24664 25199 25869 26403 26939 27473 28009 28543 29079 29480 29881 30149 30417 30684 30684 30817 30817 30684 30550 30282 30015 29614 29212 28811 28276 27741 27206 26537 
26805 26270 25735 25065 24664 24129 23728 23327 22925 22658 22524 22391 22256 22256 22391 22524 22792 23058 23327 23728 24263 24799 25333 25869 26403 26939 27607 28142 28677 29212 29747 30149 30550 30817 31085 31353 31487 31487 31487 31487 31353 31085 30817 30417 30015 29614 29079 28543 28009 27473 
27607 27072 26403 25869 25333 24932 24397 23995 23728 23327 23193 23058 22925 22925 23058 23193 23327 23594 23995 24397 24799 25333 25869 26403 26939 27607 28142 28677 29347 29881 30282 30817 31219 31487 31888 32022 32155 32289 32289 32155 32022 31888 31620 31219 30817 30417 29881 29347 28811 28276 
28410 27875 27206 26671 26135 25601 25199 24664 24397 24129 23862 23728 23594 23594 23594 23728 23995 24263 24531 24932 25467 25869 26403 26939 27607 28142 28811 29347 29881 30417 30951 31353 31888 32155 32557 32690 32958 32958 32958 32958 32824 32557 32289 32022 31620 31219 30684 30149 29614 28945 
29212 28543 28009 27473 26805 26403 25869 25467 25065 24799 24531 24263 24263 24129 24263 24397 24531 24799 25065 25467 26002 26403 26939 27473 28142 28677 29347 29881 30550 31085 31620 32022 32423 32824 33225 33359 33627 33761 33761 33627 33627 33359 33092 32824 32423 31888 31487 30951 30417 29747 
30015 29347 28811 28142 27607 27072 26537 26135 25735 25467 25199 24932 24799 24799 24799 24932 25065 25333 25735 26002 26537 26939 27473 28142 28677 29212 29881 30417 31085 31620 32155 32690 33092 33493 33894 34028 34295 34429 34429 34429 34295 34162 33894 33493 33092 32690 32289 31754 31085 30550 
30684 30149 29480 28945 28276 27741 27340 26805 26403 26135 25869 25601 25467 25467 25467 25601 25735 25869 26270 26671 27072 27607 28142 28677 29212 29881 30417 31085 31620 32155 32824 33225 33761 34162 34429 34697 34965 35099 35099 35099 34965 34831 34563 34295 33894 33493 32958 32423 31888 31353 
31487 30817 30282 29614 29079 28543 28009 27473 27072 26805 26403 26270 26135 26002 26002 26135 26270 26537 26805 27206 27607 28142 28677 29212 29747 30417 30951 31620 32155 32824 33359 33894 34295 34697 35099 35365 35633 35767 35767 35767 35767 35500 35365 34965 34697 34162 33761 33225 32690 32022 
32155 31620 30951 30282 29747 29212 28677 28142 27741 27340 27072 26805 26671 26671 26537 26671 26805 27072 27340 27741 28142 28543 29079 29747 30282 30817 31487 32155 32690 33359 33894 34429 34831 35365 35767 36035 36169 36435 36435 36435 36435 36302 36035 35767 35365 34965 34429 33894 33359 32824 
32958 32289 31754 31085 30417 29881 29347 28811 28410 28009 27741 27473 27340 27206 27206 27206 27340 27607 27875 28276 28677 29079 29614 30282 30817 31353 32022 32690 33225 33894 34429 34965 35500 35901 36302 36570 36837 37105 37105 37105 37105 36971 36703 36435 36035 35633 35232 34697 34162 33493 
33627 33092 32423 31754 31219 30550 30015 29480 29079 28677 28410 28142 27875 27875 27741 27875 28009 28142 28410 28811 29212 29614 30149 30684 31353 31888 32557 33225 33761 34429 34965 35500 36035 36570 36971 37239 37506 37640 37773 37773 37773 37640 37372 37105 36837 36435 35901 35365 34831 34295 
34429 33761 33092 32423 31888 31353 30684 30149 29747 29347 28945 28677 28543 28410 28410 28410 28543 28677 28945 29347 29747 30149 30684 31219 31888 32423 33092 33761 34295 34965 35500 36169 36570 37105 37506 37773 38041 38309 38442 38442 38442 38309 38175 37907 37506 37105 36703 36169 35633 34965 
35099 34429 33761 33225 32557 32022 31353 30817 30417 30015 29614 29347 29079 28945 28945 28945 29079 29212 29480 29881 30282 30684 31219 31754 32289 32958 33627 34162 34831 35500 36035 36703 37105 37640 38041 38442 38710 38977 39111 39111 39111 38977 38843 38577 38175 37773 37372 36837 36302 35767 
35767 35232 34563 33894 33225 32690 32022 31487 31085 30684 30282 30015 29747 29614 29480 29614 29614 29747 30015 30417 30817 31219 31754 32289 32824 33493 34162 34697 35365 36035 36570 37239 37773 38175 38710 38977 39245 39512 39647 39780 39780 39647 39512 39245 38843 38442 38041 37506 36971 36435 
36570 35901 35232 34563 33894 33359 32690 32155 31754 31219 30951 30550 30417 30149 30149 30149 30149 30417 30550 30951 31353 31754 32289 32824 33359 34028 34697 35232 35901 36570 37105 37773 38309 38843 39245 39647 39914 40181 40315 40315 40315 40315 40181 39914 39512 39245 38710 38309 37640 37105 
37239 36570 35901 35232 34697 34028 33493 32824 32423 31888 31487 31219 30951 30817 30684 30684 30817 30951 31219 31487 31888 32289 32824 33359 33894 34563 35099 35767 36435 37105 37640 38309 38843 39379 39780 40181 40449 40717 40850 40984 40984 40984 40717 40583 40181 39914 39379 38977 38442 37773 
37907 37239 36703 36035 35365 34697 34162 33627 33092 32557 32155 31888 31620 31487 31353 31353 31353 31487 31754 32022 32423 32824 33359 33894 34429 35099 35633 36302 36971 37640 38309 38843 39379 39914 40315 40717 41118 41386 41519 41654 41654 41654 41519 41251 40984 40583 40181 39647 39111 38577 
38710 38041 37372 36703 36035 35500 34831 34295 33761 33225 32824 32557 32289 32022 32022 31888 32022 32155 32289 32557 32958 33359 33894 34429 34965 35633 36169 36837 37506 38175 38843 39379 39914 40449 40984 41386 41654 41920 42188 42322 42322 42188 42054 41920 41654 41251 40850 40315 39780 39245 
39379 38710 38041 37506 36837 36169 35500 34965 34429 34028 33493 33225 32958 32690 32557 32557 32557 32690 32958 33225 33493 33894 34429 34965 35500 36169 36703 37372 38041 38710 39379 39914 40583 40984 41519 41920 42322 42589 42724 42857 42990 42857 42724 42589 42322 41920 41519 41118 40583 40047 
40181 39512 38843 38175 37506 36971 36302 35767 35232 34697 34295 33894 33627 33359 33225 33225 33225 33359 33493 33761 34162 34563 34965 35500 36169 36703 37372 38041 38577 39245 39914 40583 41118 41654 42188 42589 42857 43258 43392 43526 43660 43526 43526 43258 42990 42724 42322 41787 41251 40717 
40850 40315 39647 38977 38309 37640 37105 36435 35901 35365 34965 34563 34295 34162 33894 33894 33894 34028 34162 34429 34831 35099 35633 36169 36703 37239 37907 38577 39245 39914 40449 41118 41654 42188 42724 43124 43526 43794 44061 44195 44328 44195 44195 43927 43660 43392 42990 42589 42054 41519 
41654 40984 40449 39780 39111 38442 37773 37239 36703 36169 35767 35365 35099 34831 34697 34563 34563 34697 34831 35099 35365 35767 36302 36703 37372 37907 38577 39111 39780 40449 41118 41787 42322 42857 43392 43794 44195 44462 44730 44864 44997 44997 44864 44730 44462 44195 43794 43258 42724 42188 
42456 41787 41118 40449 39914 39245 38577 38041 37506 36971 36435 36169 35767 35500 35365 35232 35232 35365 35500 35767 36035 36435 36837 37372 37907 38577 39111 39780 40449 41118 41787 42322 42990 43526 44061 44462 44864 45131 45398 45532 45666 45666 45532 45398 45131 44864 44462 44061 43526 42990 
43124 42589 41920 41251 40583 40047 39379 38710 38175 37773 37239 36837 36570 36302 36169 36035 36035 36035 36169 36435 36703 37105 37506 38041 38577 39111 39780 40449 40984 41654 42322 42990 43526 44061 44596 45131 45532 45800 46067 46201 46335 46335 46201 46067 45934 45532 45265 44864 44328 43794 
43927 43392 42724 42054 41386 40850 40181 39647 38977 38577 38041 37640 37372 37105 36837 36703 36703 36837 36971 37105 37506 37773 38175 38710 39245 39780 40449 40984 41654 42322 42990 43660 44195 44730 45265 45800 46201 46469 46736 46870 47004 47004 47004 46870 46602 46335 45934 45532 45131 44596 
44730 44195 43526 42857 42322 41654 40984 40449 39780 39379 38843 38442 38041 37773 37640 37506 37506 37506 37640 37907 38175 38442 38977 39379 39914 40449 41118 41654 42322 42990 43660 44195 44864 45398 45934 46469 46870 47138 47405 47672 47672 47806 47672 47539 47405 47138 46736 46335 45800 45398 
45532 44997 44328 43660 43124 42456 41787 41251 40583 40181 39647 39245 38843 38577 38442 38309 38309 38309 38442 38577 38843 39245 39647 40047 40583 41118 41787 42322 42990 43660 44328 44864 45532 46067 46602 47004 47405 47806 48074 48342 48475 48475 48475 48342 48074 47806 47539 47138 46602 46067 
46335 45800 45131 44462 43927 43258 42589 42054 41519 40984 40449 40047 39647 39379 39245 39111 38977 38977 39111 39379 39647 39914 40315 40850 41251 41787 42456 42990 43660 44328 44997 45532 46201 46736 47272 47672 48074 48475 48742 49010 49144 49144 49144 49010 48877 48609 48208 47806 47405 46870 
47138 46602 45934 45398 44730 44061 43392 42857 42322 41787 41251 40850 40583 40181 40047 39914 39780 39780 39914 40047 40315 40717 41118 41519 42054 42589 43124 43794 44328 44997 45666 46201 46870 47405 47940 48342 48877 49144 49412 49679 49813 49813 49813 49813 49546 49412 49010 48609 48208 47672 
47940 47405 46736 46201 45532 44864 44328 43660 43124 42589 42054 41654 41386 40984 40850 40717 40583 40583 40717 40850 41118 41386 41787 42188 42724 43258 43794 44462 44997 45666 46335 46870 47539 48074 48609 49010 49546 49813 50080 50348 50482 50616 50616 50482 50348 50080 49813 49412 49010 48475 
48742 48208 47539 47004 46335 45666 45131 44462 43927 43392 42990 42456 42188 41920 41654 41519 41386 41386 41519 41654 41920 42188 42589 42990 43392 43927 44596 45131 45800 46335 47004 47539 48208 48742 49278 49679 50214 50482 50749 51017 51150 51284 51284 51150 51017 50749 50482 50214 49679 49278 
49412 48877 48342 47672 47138 46469 45934 45265 44730 44195 43794 43392 42990 42724 42456 42322 42188 42188 42322 42456 42589 42857 43258 43660 44195 44730 45265 45800 46469 47004 47672 48208 48877 49412 49947 50348 50749 51150 51418 51686 51819 51954 51954 51819 51686 51552 51150 50883 50482 49947 
50214 49679 49010 48475 47806 47272 46602 46067 45532 44997 44596 44061 43794 43392 43258 42990 42990 42990 42990 43124 43392 43660 43927 44328 44864 45398 45934 46469 47004 47672 48208 48877 49412 49947 50482 51017 51418 51819 52087 52354 52488 52622 52622 52488 52354 52220 51954 51552 51150 50749 
50883 50348 49813 49144 48609 48074 47405 46870 46335 45800 45265 44864 44462 44195 43927 43794 43660 43660 43794 43927 44061 44328 44730 45131 45532 46067 46602 47138 47672 48342 48877 49546 50080 50616 51150 51552 52087 52354 52756 52890 53157 53157 53157 53157 53024 52890 52488 52220 51819 51418 
51552 51017 50482 49947 49278 48742 48074 47539 47004 46469 46067 45666 45265 44997 44730 44596 44462 44462 44462 44596 44730 44997 45398 45800 46201 46602 47138 47672 48342 48877 49546 50080 50616 51150 51686 52220 52622 52890 53290 53425 53692 53826 53826 53692 53558 53425 53157 52890 52488 52087 
52220 51686 51150 50482 49947 49412 48742 48208 47672 47272 46736 46335 45934 45666 45398 45265 45131 45131 45131 45265 45398 45666 46067 46335 46870 47272 47806 48342 48877 49546 50080 50616 51150 51686 52220 52756 53157 53425 53826 53960 54227 54361 54361 54227 54227 53960 53692 53425 53024 52622 
52756 52220 51686 51150 50616 49947 49412 48877 48342 47806 47405 47004 46602 46335 46067 45934 45800 45800 45800 45934 46067 46335 46602 47004 47405 47806 48342 48877 49412 50080 50616 51150 51686 52220 52756 53157 53558 53960 54227 54495 54628 54762 54762 54762 54628 54495 54227 53960 53558 53157 
53157 52756 52220 51686 51150 50616 49947 49412 48877 48475 47940 47539 47272 46870 46736 46469 46335 46335 46335 46469 46602 46870 47138 47539 47940 48342 48877 49412 49947 50482 51017 51552 52220 52622 53157 53558 54094 54361 54628 54896 55164 55164 55297 55164 55164 54896 54762 54495 54094 53692 
53692 53157 52622 52087 51552 51017 50482 49947 49412 49010 48475 48074 47806 47405 47272 47004 46870 46870 46870 47004 47138 47405 47672 48074 48475 48877 49278 49813 50348 50883 51418 51954 52488 53024 53558 53960 54361 54762 55030 55297 55431 55565 55565 55565 55431 55297 55030 54762 54495 54094 
53960 53558 53024 52488 51954 51418 50883 50348 49947 49412 49010 48609 48208 47940 47672 47539 47405 47405 47405 47539 47672 47806 48074 48475 48877 49278 49813 50214 50749 51284 51819 52354 52890 53425 53826 54361 54762 55030 55297 55565 55698 55832 55966 55832 55832 55698 55431 55164 54762 54361 
54227 53826 53290 52756 52220 51819 51284 50749 50214 49813 49278 49010 48609 48342 48074 47940 47806 47806 47806 47940 48074 48208 48475 48877 49278 49679 50080 50616 51017 51552 52087 52622 53157 53692 54094 54495 54896 55297 55565 55832 55966 56100 56100 56100 55966 55832 55698 55431 55030 54628 
54495 53960 53558 53024 52488 51954 51418 51017 50482 50080 49679 49278 48877 48609 48342 48208 48074 48074 48074 48208 48342 48609 48877 49144 49546 49947 50348 50749 51284 51819 52354 52756 53290 53826 54227 54628 55030 55431 55698 55966 56100 56234 56234 56234 56100 55966 55832 55565 55164 54896 
54495 54094 53558 53157 52622 52087 51686 51150 50749 50214 49813 49412 49144 48877 48609 48475 48342 48342 48342 48475 48609 48742 49010 49412 49679 50080 50482 51017 51418 51954 52488 52890 53425 53960 54361 54762 55164 55431 55698 55966 56100 56234 56234 56234 56100 55966 55832 55565 55297 54896 
54495 54094 53558 53157 52622 52220 51686 51150 50749 50348 49947 49546 49278 49010 48742 48609 48475 48475 48475 48609 48742 48877 49144 49412 49813 50214 50616 51017 51552 51954 52488 53024 53425 53960 54361 54762 55164 55431 55698 55832 56100 56100 56234 56234 56100 55966 55698 55565 55164 54896 
54361 53960 53558 53024 52622 52087 51686 51150 50749 50348 49947 49546 49278 49010 48742 48609 48609 48475 48609 48609 48742 49010 49278 49546 49813 50214 50616 51017 51552 51954 52488 52890 53425 53826 54227 54628 55030 55297 55565 55698 55966 55966 56100 55966 55966 55832 55565 55431 55030 54762 
54094 53692 53290 52890 52354 51954 51418 51017 50616 50214 49813 49412 49144 49010 48742 48609 48475 48475 48475 48609 48742 48877 49144 49412 49813 50080 50482 51017 51418 51819 52354 52756 53157 53692 54094 54361 54762 55030 55297 55431 55698 55698 55832 55698 55698 55565 55297 55164 54762 54495 
53826 53425 52890 52488 52087 51686 51150 50749 50348 49947 49546 49278 49010 48742 48609 48475 48342 48342 48342 48475 48609 48742 49010 49278 49546 49947 50348 50749 51150 51686 52087 52488 52890 53425 53692 54094 54495 54762 54896 55164 55297 55431 55431 55431 55297 55164 54896 54762 54495 54094 
53290 52890 52488 52087 51686 51284 50749 50348 49947 49679 49278 49010 48742 48475 48342 48208 48074 48074 48074 48208 48342 48475 48742 49010 49412 49679 50080 50482 50883 51284 51686 52220 52622 53024 53425 53692 53960 54227 54495 54628 54762 54896 54896 54896 54762 54628 54495 54227 53960 53692 
52756 52354 51954 51552 51150 50749 50348 49947 49546 49144 48877 48609 48342 48074 47940 47806 47672 47672 47806 47806 47940 48208 48475 48742 49010 49278 49679 50080 50482 50883 51284 51686 52087 52488 52890 53157 53558 53826 53960 54094 54227 54361 54361 54361 54227 54094 53826 53692 53425 53024 
52087 51686 51284 50883 50482 50080 49679 49278 49010 48609 48342 48074 47806 47539 47405 47405 47272 47272 47272 47405 47539 47806 47940 48208 48609 48877 49278 49679 50080 50482 50883 51150 51552 51954 52354 52622 52890 53157 53290 53558 53558 53692 53692 53692 53558 53425 53157 53024 52756 52354 
51284 50883 50616 50214 49813 49412 49010 48609 48342 47940 47672 47405 47138 47004 46870 46736 46736 46736 46736 46870 47004 47272 47405 47672 47940 48342 48609 49010 49412 49813 50214 50616 51017 51284 51686 51954 52220 52488 52622 52756 52890 52890 52890 52890 52756 52622 52354 52220 51954 51686 
50348 50080 49679 49278 48877 48609 48208 47806 47539 47138 46870 46602 46469 46335 46201 46067 46067 46067 46067 46201 46335 46602 46736 47004 47405 47672 48074 48342 48742 49144 49546 49813 50214 50616 50883 51150 51418 51552 51819 51954 51954 52087 51954 51954 51819 51686 51552 51284 51017 50749 
49412 49010 48742 48342 47940 47672 47272 46870 46602 46335 46067 45800 45666 45532 45398 45265 45265 45265 45398 45532 45666 45800 46067 46335 46602 46870 47272 47672 47940 48342 48742 49010 49412 49679 49947 50214 50482 50749 50883 51017 51017 51017 51017 51017 50883 50749 50482 50214 49947 49679 
