P2
100 50
65535
21883 20338 19050 17763 16733 15961 14930 14416 14159 13901 13901 13901 14159 14416 15188 15961 16733 17763 19050 20080 21368 22913 24458 25745 27290 28835 30380 31924 33212 34757 36045 37332 38619 39907 40937 41967 42739 43511 44284 44798 45571 45829 46344 46602 47117 47374 47631 47631 47889 48146 48146 48404 48661 48919 49177 49434 49691 49949 50464 50721 51236 51751 52266 52781 53039 53554 54069 54583 54841 55356 55614 55871 55871 55871 55871 55871 55614 55356 54841 54326 53554 52524 51493 50464 49434 47889 46602 45056 43254 41709 39907 38104 36302 34243 32439 30637 28577 26775 25230 23427 
21883 20338 19050 17763 16733 15703 14930 14416 13901 13901 13901 13901 14159 14416 15188 15961 16733 17763 19050 20338 21625 23170 24458 26002 27548 29093 30637 32182 33727 35272 36559 37847 39134 40422 41452 42482 43511 44284 45056 45571 46086 46602 47117 47374 47889 48146 48146 48404 48661 48661 48919 49177 49434 49434 49691 49949 50206 50721 50979 51236 51751 52266 52524 53039 53554 53812 54326 54841 55099 55356 55614 55871 56128 56128 56128 55871 55614 55356 54841 54326 53554 52524 51493 50464 49177 47889 46602 45056 43254 41452 39907 38104 36045 34243 32439 30380 28577 26775 24972 23427 
21883 20338 19050 17763 16733 15703 14930 14416 13901 13901 13901 13901 14159 14673 15188 15961 16990 18021 19308 20596 21883 23427 24972 26517 28062 29607 31152 32697 34243 35787 37074 38619 39907 40937 42224 43254 44027 45056 45571 46344 46859 47374 47889 48146 48661 48919 48919 49177 49434 49434 49691 49691 49949 50206 50464 50721 50979 51236 51493 51751 52266 52524 53039 53296 53812 54069 54583 54841 55356 55614 55871 55871 56128 56128 56128 55871 55614 55356 54841 54069 53554 52524 51493 50464 49177 47889 46344 44798 43254 41452 39649 37847 36045 34243 32182 30380 28577 26775 24972 23427 
21883 20338 19050 17763 16733 15703 15188 14416 14159 13901 13901 13901 14416 14930 15446 16218 17248 18278 19565 20853 22140 23685 25230 26775 28577 30122 31667 33212 34757 36302 37847 39134 40422 41709 42739 43769 44798 45829 46344 47117 47631 48146 48661 48919 49177 49434 49691 49949 49949 50206 50206 50464 50464 50721 50979 51236 51236 51493 52008 52266 52524 52781 53296 53554 54069 54326 54841 55099 55356 55614 55871 56128 56128 56128 56128 55871 55614 55099 54841 54069 53296 52524 51493 50206 49177 47631 46344 44798 42996 41452 39649 37847 36045 33985 32182 30380 28577 26775 24972 23427 
21883 20338 19050 18021 16990 15961 15188 14673 14416 14159 14159 14159 14673 15188 15961 16733 17505 18792 20080 21368 22656 24200 25745 27290 29093 30637 32182 33727 35272 37074 38361 39907 41194 42482 43511 44541 45571 46344 47117 47889 48404 48919 49434 49691 49949 50206 50464 50721 50721 50721 50979 50979 51236 51236 51493 51751 51751 52008 52266 52524 52781 53039 53554 53812 54069 54583 54841 55099 55356 55614 55871 56128 56128 56128 55871 55871 55356 55099 54583 54069 53296 52266 51236 50206 48919 47631 46344 44798 42996 41452 39649 37847 36045 34243 32182 30380 28577 26775 25230 23427 
22140 20596 19308 18021 16990 16218 15446 14930 14673 14416 14416 14673 14930 15446 16218 16990 18021 19050 20338 21883 23170 24715 26260 28062 29607 31152 32955 34500 36045 37590 39134 40422 41967 43254 44284 45314 46344 47117 47889 48661 49177 49691 50206 50464 50721 50979 51236 51236 51493 51493 51493 51493 51751 51751 52008 52008 52266 52266 52524 52781 53039 53296 53554 54069 54326 54583 54841 55099 55356 55614 55871 55871 56128 55871 55871 55614 55356 55099 54583 53812 53039 52266 51236 50206 48919 47631 46086 44541 42996 41194 39649 37847 36045 34243 32182 30380 28577 26775 25230 23685 
22398 20853 19565 18535 17505 16475 15961 15446 14930 14930 14930 14930 15446 15961 16733 17505 18535 19565 20853 22398 23685 25230 27033 28577 30122 31924 33470 35272 36817 38361 39907 41194 42482 43769 45056 46086 47117 47889 48661 49434 49949 50464 50721 51236 51493 51751 51751 52008 52008 52008 52008 52008 52266 52266 52266 52524 52524 52781 52781 53039 53296 53554 53812 54069 54326 54583 54841 55099 55356 55614 55871 55871 55871 55871 55614 55614 55099 54841 54326 53812 53039 52008 50979 49949 48919 47374 46086 44541 42996 41194 39649 37847 36045 34243 32439 30637 28835 27033 25487 23943 
22656 21111 19823 18792 17763 16990 16218 15703 15446 15188 15446 15446 15961 16475 17248 18021 19050 20338 21625 22913 24458 26002 27548 29350 30895 32439 34243 35787 37332 39134 40422 41967 43254 44541 45829 46859 47889 48661 49434 50206 50721 51236 51493 51751 52008 52266 52524 52524 52524 52524 52524 52524 52524 52524 52781 52781 52781 53039 53039 53296 53296 53554 53812 54069 54326 54583 54841 55099 55356 55614 55614 55614 55614 55614 55614 55356 55099 54583 54069 53554 52781 52008 50979 49949 48661 47374 46086 44541 42996 41194 39649 37847 36045 34243 32439 30637 29093 27290 25745 24200 
22913 21625 20338 19308 18278 17505 16733 16218 15961 15961 15961 16218 16475 16990 17763 18792 19823 20853 22140 23685 24972 26517 28320 29864 31667 33212 35015 36559 38104 39649 41194 42739 44027 45314 46344 47631 48404 49434 50206 50721 51236 51751 52008 52524 52781 52781 53039 53039 53039 53039 53039 53039 53039 53039 53039 53039 53039 53039 53296 53296 53554 53554 53812 54069 54326 54583 54841 54841 55099 55356 55356 55614 55614 55356 55356 55099 54841 54326 54069 53296 52524 51751 50721 49691 48661 47374 46086 44541 42996 41452 39649 38104 36302 34500 32697 30895 29093 27548 26002 24458 
23427 21883 20853 19565 18792 18021 17248 16733 16475 16475 16475 16733 17248 17763 18535 19308 20338 21625 22913 24200 25745 27290 29093 30637 32182 33985 35530 37332 38877 40422 41967 43254 44798 46086 47117 48146 49177 49949 50721 51493 52008 52266 52781 53039 53296 53296 53296 53296 53296 53296 53296 53296 53296 53039 53039 53039 53039 53296 53296 53296 53554 53554 53812 54069 54069 54326 54583 54841 54841 55099 55099 55356 55356 55099 55099 54841 54583 54069 53812 53039 52524 51493 50721 49691 48404 47117 45829 44541 42996 41452 39649 38104 36302 34757 32955 31152 29350 27805 26260 24715 
23685 22398 21368 20080 19308 18535 17763 17505 17248 16990 17248 17505 17763 18535 19308 20080 21111 22398 23685 24972 26517 28062 29607 31409 32955 34757 36302 38104 39649 41194 42739 44027 45314 46602 47889 48919 49691 50721 51236 52008 52524 52781 53296 53554 53554 53812 53812 53812 53812 53554 53554 53554 53296 53296 53296 53296 53296 53296 53296 53296 53296 53554 53554 53812 54069 54069 54326 54583 54583 54841 54841 54841 54841 54841 54841 54583 54326 53812 53554 52781 52266 51493 50464 49434 48404 47117 45829 44541 42996 41452 39907 38104 36559 34757 33212 31409 29864 28062 26517 25230 
24200 22913 21883 20853 19823 19050 18535 18021 17763 17763 17763 18021 18535 19308 20080 20853 21883 23170 24458 25745 27290 28835 30380 32182 33727 35530 37074 38619 40165 41967 43254 44798 46086 47374 48404 49434 50464 51236 51751 52524 53039 53296 53554 53812 54069 54069 54069 54069 54069 53812 53812 53554 53554 53296 53296 53296 53296 53039 53296 53296 53296 53296 53554 53554 53812 53812 54069 54326 54326 54583 54583 54583 54583 54583 54583 54326 54069 53554 53296 52781 52008 51236 50206 49434 48404 47117 45829 44541 42996 41452 39907 38361 36817 35015 33470 31667 30122 28577 27033 25745 
24715 23427 22398 21368 20338 19823 19050 18792 18535 18535 18535 18792 19308 19823 20596 21625 22656 23943 25230 26517 28062 29607 31152 32955 34500 36045 37847 39392 40937 42482 44027 45314 46602 47889 48919 49949 50721 51751 52266 52781 53296 53554 53812 54069 54326 54326 54326 54069 54069 54069 53812 53554 53554 53296 53296 53296 53039 53039 53039 53039 53039 53039 53296 53296 53554 53554 53812 53812 54069 54069 54326 54326 54326 54326 54069 53812 53554 53296 53039 52524 51751 50979 50206 49177 48146 47117 45829 44541 42996 41709 40165 38619 36817 35272 33727 32182 30380 28835 27548 26002 
25230 23943 22913 21883 21111 20338 19823 19565 19308 19308 19308 19565 20080 20596 21368 22398 23427 24715 26002 27290 28835 30380 31924 33470 35272 36817 38361 39907 41452 42996 44541 45829 47117 48404 49434 50464 51236 52008 52524 53296 53554 54069 54069 54326 54326 54326 54326 54326 54069 54069 53812 53554 53554 53296 53039 53039 52781 52781 52781 52781 52781 52781 52781 53039 53039 53296 53296 53554 53554 53812 53812 53812 53812 53812 53812 53554 53296 53039 52781 52266 51493 50721 49949 49177 48146 47117 45829 44541 43254 41709 40165 38619 37074 35530 33985 32439 30895 29350 28062 26517 
25745 24715 23685 22656 21625 21111 20596 20080 20080 19823 20080 20338 20853 21368 22140 23170 24200 25230 26775 28062 29607 30895 32697 34243 35787 37332 39134 40680 42224 43511 45056 46344 47631 48661 49691 50721 51493 52266 53039 53296 53812 54069 54326 54583 54583 54583 54326 54326 54069 53812 53812 53554 53296 53039 53039 52781 52524 52524 52524 52524 52524 52524 52524 52524 52781 52781 53039 53039 53296 53296 53554 53554 53554 53554 53296 53296 53039 52781 52266 52008 51236 50721 49691 48919 47889 46859 45829 44541 43254 41709 40422 38877 37332 35787 34243 32697 31152 29864 28320 27033 
26260 25230 24200 23170 22398 21883 21368 20853 20853 20596 20853 21111 21625 22140 22913 23943 24972 26002 27290 28835 30122 31667 33212 34757 36302 38104 39649 41194 42739 44027 45571 46859 47889 49177 50206 50979 51751 52524 53039 53554 53812 54326 54326 54583 54583 54583 54326 54069 54069 53812 53554 53296 53039 52781 52781 52524 52266 52266 52008 52008 52008 52008 52008 52266 52266 52524 52524 52781 52781 53039 53039 53039 53039 53039 53039 52781 52781 52524 52008 51751 51236 50464 49691 48919 47889 46859 45829 44541 43254 41967 40680 39134 37590 36045 34757 33212 31667 30380 28835 27548 
27033 25745 24715 23943 23170 22398 21883 21625 21368 21368 21625 21883 22398 22913 23685 24715 25745 26775 28062 29350 30895 32439 33727 35530 37074 38619 40165 41709 42996 44541 45829 47117 48146 49434 50464 51236 52008 52781 53296 53554 54069 54326 54326 54326 54326 54326 54326 54069 53812 53554 53296 53039 52781 52524 52266 52266 52008 51751 51751 51751 51493 51493 51751 51751 51751 52008 52008 52266 52266 52524 52524 52781 52781 52781 52781 52524 52266 52266 51751 51493 50979 50206 49434 48661 47889 46859 45829 44541 43511 41967 40680 39392 37847 36559 35015 33470 32182 30637 29350 28062 
27548 26260 25230 24458 23685 23170 22656 22398 22140 22140 22140 22656 22913 23685 24458 25230 26260 27548 28577 30122 31409 32955 34500 36045 37590 39134 40422 41967 43511 44798 46086 47374 48404 49691 50464 51236 52008 52781 53296 53554 53812 54069 54326 54326 54326 54069 54069 53812 53554 53296 53039 52781 52266 52008 52008 51751 51493 51236 51236 51236 51236 50979 51236 51236 51236 51493 51493 51751 52008 52008 52266 52266 52266 52266 52266 52266 52008 51751 51493 51236 50721 50206 49434 48661 47889 46859 45829 44798 43511 42224 40937 39649 38104 36817 35272 33985 32439 31152 29864 28577 
28062 26775 26002 24972 24200 23685 23170 22913 22913 22656 22913 23170 23685 24200 24972 26002 27033 28062 29350 30637 31924 33470 34757 36302 37847 39392 40937 42224 43769 45056 46344 47374 48661 49691 50464 51236 52008 52781 53039 53554 53812 53812 54069 54069 54069 53812 53554 53296 53039 52781 52524 52266 52008 51751 51493 51236 50979 50721 50721 50721 50721 50721 50721 50721 50979 50979 51236 51236 51493 51751 51751 51751 52008 52008 52008 52008 51751 51493 51493 50979 50464 49949 49434 48661 47889 46859 45829 44798 43511 42482 41194 39907 38361 37074 35787 34243 32955 31667 30380 29093 
28577 27290 26517 25487 24972 24200 23943 23427 23427 23427 23427 23685 24200 24972 25745 26517 27548 28577 29864 31152 32439 33727 35272 36817 38104 39649 41194 42482 43769 45314 46344 47631 48661 49691 50464 51236 52008 52524 53039 53296 53554 53554 53812 53554 53554 53554 53296 53039 52781 52266 52008 51751 51493 51236 50979 50721 50464 50206 50206 50206 50206 50206 50206 50206 50464 50464 50721 50721 50979 51236 51236 51493 51493 51751 51751 51493 51493 51493 51236 50721 50464 49949 49177 48404 47631 46859 45829 44798 43769 42482 41194 39907 38619 37332 36045 34757 33212 31924 30637 29607 
28835 27805 27033 26002 25230 24715 24458 23943 23943 23943 23943 24458 24715 25487 26002 27033 28062 29093 30122 31409 32697 34243 35530 37074 38361 39907 41194 42739 44027 45314 46344 47631 48661 49691 50464 50979 51751 52266 52524 53039 53039 53296 53296 53296 53039 53039 52781 52524 52266 51751 51493 51236 50979 50721 50464 50206 49949 49691 49691 49691 49434 49434 49691 49691 49949 49949 50206 50464 50464 50721 50979 50979 51236 51236 51236 51236 51236 51236 50979 50721 50206 49691 49177 48404 47631 46859 45829 44798 43769 42739 41452 40165 38877 37590 36302 35015 33727 32439 31152 29864 
29350 28320 27290 26517 25745 25230 24715 24458 24458 24458 24458 24715 25230 25745 26517 27290 28320 29350 30637 31667 32955 34500 35787 37332 38619 39907 41452 42739 44027 45314 46344 47374 48404 49434 50206 50721 51493 52008 52266 52524 52781 52781 52781 52781 52524 52524 52266 51751 51493 51236 50979 50464 50206 49949 49691 49434 49434 49177 49177 48919 48919 48919 49177 49177 49434 49434 49691 49949 50206 50464 50464 50721 50979 50979 50979 50979 50979 50979 50721 50464 50206 49691 49177 48404 47631 46859 46086 45056 44027 42739 41709 40422 39134 37847 36559 35272 33985 32697 31409 30380 
29607 28577 27805 27033 26260 25745 25230 24972 24715 24715 24972 25230 25745 26260 27033 27805 28577 29607 30895 31924 33212 34500 36045 37332 38619 40165 41452 42739 44027 45056 46344 47374 48146 49177 49949 50464 50979 51493 51751 52008 52266 52266 52266 52266 52008 51751 51493 51236 50979 50721 50206 49949 49691 49434 49177 48919 48661 48661 48404 48404 48404 48404 48661 48661 48919 49177 49434 49434 49691 49949 50206 50464 50721 50721 50979 50979 50979 50721 50721 50464 49949 49691 48919 48404 47631 46859 46086 45056 44027 42996 41709 40680 39392 38104 36817 35530 34243 32955 31924 30637 
29864 28835 28062 27290 26517 26002 25487 25230 25230 24972 25230 25487 26002 26517 27290 28062 28835 29864 30895 32182 33470 34757 36045 37332 38619 39907 41194 42482 43769 44798 46086 46859 47889 48661 49434 49949 50464 50979 51236 51493 51751 51751 51751 51493 51493 51236 50979 50464 50206 49949 49691 49177 48919 48661 48404 48404 48146 47889 47889 47889 47889 47889 48146 48146 48404 48661 48919 49177 49434 49691 49949 50206 50464 50464 50721 50721 50721 50721 50464 50206 49949 49691 48919 48404 47889 47117 46086 45056 44027 42996 41967 40680 39392 38361 37074 35787 34500 33212 32182 30895 
30122 29093 28320 27548 26775 26260 25745 25487 25487 25230 25487 25745 26002 26775 27290 28062 29093 29864 31152 32182 33470 34757 36045 37332 38619 39907 41194 42224 43511 44541 45571 46602 47374 48404 48919 49691 49949 50464 50721 50979 50979 50979 50979 50979 50721 50464 50206 49949 49434 49177 48919 48661 48404 48146 47889 47631 47631 47374 47374 47374 47374 47374 47631 47889 48146 48146 48661 48919 49177 49434 49691 49949 50206 50464 50464 50464 50464 50464 50464 50206 49949 49434 48919 48404 47889 47117 46086 45314 44284 43254 41967 40937 39649 38361 37074 36045 34757 33470 32439 31152 
30380 29350 28577 27805 27033 26517 26002 25745 25487 25487 25487 25745 26260 26775 27290 28062 29093 29864 31152 32182 33470 34500 35787 37074 38361 39649 40937 41967 43254 44284 45314 46086 47117 47889 48404 48919 49434 49949 50206 50206 50464 50464 50206 50206 49949 49691 49434 49177 48919 48404 48146 47889 47631 47374 47117 47117 46859 46859 46859 46859 46859 47117 47117 47374 47631 47889 48146 48661 48919 49177 49434 49691 49949 50206 50464 50464 50464 50464 50464 50206 49949 49691 49177 48404 47889 47117 46344 45314 44284 43254 42224 40937 39907 38619 37332 36045 34757 33727 32439 31409 
30380 29350 28577 27805 27033 26517 26002 25745 25487 25487 25487 25745 26260 26775 27290 28062 28835 29864 30895 31924 33212 34243 35530 36817 38104 39392 40422 41709 42739 43769 44798 45571 46344 47117 47889 48404 48919 49177 49434 49434 49691 49691 49434 49434 49177 48919 48661 48404 48146 47889 47374 47117 46859 46859 46602 46344 46344 46344 46344 46344 46344 46602 46859 47117 47374 47631 47889 48146 48661 48919 49177 49691 49949 50206 50206 50464 50464 50464 50464 50206 49949 49691 49177 48661 47889 47117 46344 45314 44541 43254 42224 41194 39907 38619 37332 36302 35015 33727 32697 31409 
30637 29607 28577 27805 27033 26517 26002 25745 25487 25487 25487 25745 26260 26517 27290 28062 28835 29607 30637 31667 32955 33985 35272 36559 37590 38877 40165 41194 42224 43254 44284 45056 45829 46602 47117 47631 48146 48404 48661 48919 48919 48919 48661 48661 48404 48146 47889 47631 47374 47117 46859 46602 46344 46086 46086 45829 45829 45829 45829 45829 46086 46086 46344 46602 47117 47374 47631 48146 48404 48919 49177 49434 49691 49949 50206 50464 50464 50464 50464 50206 49949 49691 49177 48661 47889 47374 46344 45571 44541 43511 42482 41194 39907 38877 37590 36302 35015 33727 32697 31667 
30380 29350 28577 27805 27033 26517 26002 25487 25487 25230 25487 25487 26002 26517 27033 27805 28577 29350 30380 31409 32439 33727 34757 36045 37332 38361 39649 40680 41709 42739 43511 44541 45314 45829 46602 46859 47374 47631 47889 48146 48146 48146 47889 47889 47631 47374 47117 46859 46602 46344 46086 45829 45571 45571 45314 45314 45314 45314 45314 45571 45571 45829 46086 46344 46859 47117 47631 47889 48404 48661 49177 49434 49691 49949 50206 50464 50464 50464 50464 50464 50206 49691 49177 48661 48146 47374 46602 45571 44541 43511 42482 41194 39907 38877 37590 36302 35015 33727 32697 31667 
30380 29350 28320 27548 26775 26260 25745 25487 25230 25230 25230 25230 25745 26260 26775 27290 28062 29093 30122 31152 32182 33212 34500 35530 36817 37847 38877 40165 40937 41967 42996 43769 44541 45314 45829 46344 46602 47117 47117 47374 47374 47374 47374 47117 46859 46859 46602 46344 46086 45829 45571 45314 45056 45056 44798 44798 44798 44798 45056 45056 45314 45571 45829 46344 46602 47117 47374 47889 48146 48661 49177 49434 49691 50206 50206 50464 50721 50721 50721 50464 50206 49949 49434 48919 48146 47374 46602 45571 44541 43511 42482 41194 40165 38877 37590 36302 35015 33727 32697 31409 
30122 29093 28320 27290 26517 26002 25487 25230 24972 24715 24715 24972 25230 25745 26260 27033 27805 28577 29607 30637 31667 32697 33727 35015 36045 37332 38361 39392 40422 41452 42224 42996 43769 44541 45056 45571 45829 46344 46344 46602 46602 46602 46602 46344 46344 46086 45829 45571 45314 45056 44798 44798 44541 44541 44284 44284 44284 44541 44541 44798 45056 45314 45571 46086 46344 46859 47374 47889 48146 48661 49177 49434 49949 50206 50464 50721 50721 50721 50721 50464 50464 49949 49434 48919 48146 47631 46602 45829 44798 43511 42482 41194 39907 38877 37590 36302 35015 33727 32439 31409 
29864 28835 28062 27033 26260 25745 25230 24715 24458 24458 24458 24458 24972 25230 25745 26517 27290 28062 29093 29864 31152 32182 33212 34500 35530 36559 37590 38619 39649 40680 41452 42224 42996 43769 44284 44798 45056 45571 45571 45829 45829 45829 45829 45571 45571 45314 45056 45056 44798 44541 44284 44284 44027 44027 44027 44027 44027 44284 44284 44541 44798 45056 45571 45829 46344 46859 47374 47889 48404 48661 49177 49691 49949 50206 50464 50721 50979 50979 50979 50721 50464 50206 49691 48919 48404 47631 46602 45829 44798 43511 42482 41194 39907 38619 37332 36045 34757 33470 32182 31152 
29607 28577 27548 26775 26002 25230 24715 24458 24200 23943 23943 23943 24458 24715 25230 26002 26517 27548 28320 29350 30380 31409 32697 33727 34757 36045 37074 38104 38877 39907 40937 41709 42224 42996 43511 44027 44541 44798 45056 45056 45056 45056 45056 45056 44798 44798 44541 44284 44284 44027 43769 43769 43769 43511 43769 43769 43769 44027 44284 44541 44798 45056 45571 45829 46344 46859 47374 47889 48404 48919 49434 49691 50206 50464 50721 50979 50979 51236 50979 50979 50721 50206 49691 49177 48404 47631 46859 45829 44798 43511 42482 41194 39907 38619 37332 36045 34500 33212 32182 30895 
29350 28320 27290 26260 25487 24715 24200 23943 23427 23427 23427 23427 23685 24200 24715 25230 26002 26775 27805 28577 29607 30895 31924 32955 33985 35272 36302 37332 38361 39134 40165 40937 41709 42224 42739 43254 43769 44027 44284 44284 44541 44541 44541 44541 44284 44284 44027 43769 43769 43511 43511 43254 43254 43254 43254 43511 43511 43769 44027 44284 44541 45056 45571 46086 46344 47117 47631 48146 48661 49177 49434 49949 50464 50721 50979 51236 51236 51236 51236 50979 50721 50464 49949 49177 48661 47889 46859 45829 44798 43511 42482 41194 39649 38361 37074 35787 34243 32955 31667 30637 
29093 27805 26775 25745 24972 24200 23685 23170 22913 22913 22656 22913 23170 23427 23943 24715 25230 26002 27033 28062 29093 30122 31152 32182 33470 34500 35530 36559 37590 38619 39392 40165 40937 41709 42224 42739 42996 43511 43511 43769 43769 44027 44027 43769 43769 43769 43511 43511 43254 43254 42996 42996 42996 42996 43254 43254 43511 43769 44027 44284 44798 45056 45571 46086 46602 47117 47631 48146 48661 49434 49691 50206 50721 50979 51236 51493 51493 51493 51493 51236 50979 50464 49949 49434 48661 47889 46859 45829 44798 43511 42224 40937 39649 38361 36817 35530 33985 32697 31409 30122 
28577 27290 26260 25230 24458 23685 23170 22656 22398 22140 22140 22140 22398 22913 23170 23943 24715 25487 26260 27290 28320 29350 30380 31667 32697 33727 34757 35787 36817 37847 38619 39392 40165 40937 41452 41967 42482 42739 42996 43254 43254 43511 43511 43511 43254 43254 43254 42996 42996 42996 42739 42739 42739 42996 42996 43254 43511 43769 44027 44284 44798 45056 45571 46344 46859 47374 47889 48404 48919 49691 50206 50464 50979 51236 51493 51751 51751 51751 51751 51493 51236 50721 50206 49434 48919 47889 46859 45829 44798 43511 42224 40937 39392 38104 36559 35272 33727 32439 31152 29864 
28062 26775 25745 24715 23943 23170 22398 21883 21625 21368 21368 21368 21625 22140 22656 23170 23943 24715 25487 26517 27548 28577 29607 30895 31924 32955 33985 35272 36045 37074 38104 38877 39649 40422 40937 41452 41967 42224 42482 42739 42739 42996 42996 42996 42996 42996 42996 42739 42739 42739 42739 42739 42739 42739 42996 43254 43511 43769 44027 44541 44798 45314 45829 46344 47117 47631 48146 48661 49434 49949 50464 50721 51236 51493 51751 52008 52008 52008 52008 51751 51493 50979 50464 49691 48919 47889 46859 45829 44798 43511 42224 40680 39392 37847 36302 35015 33470 31924 30637 29350 
27548 26260 25230 24200 23170 22398 21883 21368 20853 20853 20596 20853 20853 21368 21883 22398 23170 23943 24715 25745 26775 27805 28835 30122 31152 32439 33470 34500 35530 36559 37332 38361 39134 39649 40422 40937 41452 41709 41967 42224 42482 42739 42739 42739 42739 42739 42739 42739 42482 42482 42739 42739 42739 42996 42996 43254 43511 43769 44284 44541 45056 45571 46086 46859 47374 47889 48661 49177 49691 50206 50721 51236 51493 52008 52266 52266 52524 52524 52266 52008 51751 51236 50464 49691 48919 48146 47117 45829 44541 43254 41967 40680 39134 37590 36045 34500 32955 31667 30122 28835 
27033 25745 24715 23427 22656 21883 21111 20596 20338 20080 19823 20080 20080 20596 21111 21625 22398 23170 23943 24972 26002 27033 28320 29350 30637 31667 32697 33727 34757 35787 36817 37590 38619 39134 39907 40422 40937 41452 41709 41967 42224 42224 42482 42482 42482 42482 42482 42482 42482 42482 42482 42739 42739 42996 43254 43511 43769 44027 44541 44798 45314 45829 46344 47117 47631 48146 48919 49434 49949 50721 51236 51493 52008 52266 52524 52524 52781 52781 52524 52266 52008 51236 50721 49949 49177 48146 47117 45829 44541 43254 41709 40422 38877 37332 35787 34243 32697 31152 29864 28320 
26517 25230 23943 22913 21883 21111 20338 19823 19565 19308 19308 19308 19308 19823 20338 20853 21625 22398 23170 24200 25230 26517 27548 28835 29864 31152 32182 33212 34243 35272 36302 37332 38104 38877 39392 40165 40680 41194 41452 41709 41967 42224 42224 42482 42482 42482 42482 42482 42482 42739 42739 42739 42996 43254 43511 43769 44027 44284 44798 45314 45829 46344 46859 47374 48146 48661 49434 49949 50464 50979 51493 52008 52266 52781 52781 53039 53039 53039 52781 52524 52008 51493 50721 49949 49177 48146 47117 45829 44541 42996 41709 40165 38619 37074 35530 33727 32182 30637 29350 27805 
26002 24458 23427 22140 21368 20338 19823 19308 18792 18535 18535 18535 18535 19050 19565 20080 20853 21625 22656 23427 24715 25745 26775 28062 29350 30380 31667 32697 33727 34757 35787 36817 37590 38361 39134 39907 40422 40937 41194 41452 41709 41967 42224 42224 42482 42482 42482 42739 42739 42739 42996 42996 43254 43254 43769 44027 44284 44541 45056 45571 46086 46602 47374 47889 48404 49177 49691 50464 50979 51493 52008 52524 52781 53039 53296 53296 53296 53296 53039 52781 52266 51751 50979 50206 49177 48146 47117 45829 44284 42996 41452 39907 38361 36817 35015 33470 31924 30380 28835 27290 
25487 23943 22913 21625 20596 19823 19050 18535 18021 17763 17763 17763 18021 18278 18792 19308 20080 20853 21883 22913 23943 25230 26260 27548 28835 29864 31152 32182 33470 34500 35530 36559 37332 38104 38877 39649 40165 40680 41194 41452 41709 41967 42224 42482 42482 42739 42739 42739 42996 42996 43254 43254 43511 43769 44027 44284 44798 45056 45571 46086 46602 47117 47631 48404 48919 49691 50206 50721 51493 52008 52266 52781 53039 53554 53554 53812 53812 53554 53296 53039 52524 52008 51236 50206 49434 48146 47117 45829 44284 42739 41452 39649 38104 36559 34757 33212 31409 29864 28320 26775 
24972 23427 22140 21111 20080 19050 18278 17763 17505 17248 16990 16990 17248 17505 18021 18792 19565 20338 21368 22398 23427 24458 25745 27033 28320 29350 30637 31924 32955 34243 35272 36302 37074 38104 38877 39392 40165 40680 41194 41452 41967 42224 42482 42482 42739 42996 42996 42996 43254 43254 43511 43769 43769 44027 44541 44798 45056 45571 46086 46602 47117 47631 48146 48919 49434 49949 50721 51236 51751 52266 52781 53296 53554 53812 54069 54069 54069 53812 53554 53296 52781 52008 51236 50464 49434 48146 47117 45571 44284 42739 41194 39649 37847 36045 34500 32697 31152 29350 27805 26260 
24458 22913 21625 20596 19308 18535 17763 17248 16733 16475 16475 16475 16733 16990 17505 18021 18792 19823 20596 21625 22913 23943 25230 26517 27805 29093 30380 31667 32697 33985 35015 36045 37074 37847 38877 39392 40165 40680 41194 41709 41967 42482 42739 42739 42996 43254 43254 43511 43511 43769 44027 44027 44284 44541 44798 45314 45571 46086 46602 47117 47631 48146 48661 49177 49949 50464 51236 51751 52266 52781 53296 53554 53812 54069 54326 54326 54326 54069 53812 53554 53039 52266 51493 50464 49434 48146 46859 45571 44027 42482 40937 39392 37590 35787 34243 32439 30637 29093 27290 25745 
23943 22398 21111 19823 18792 18021 17248 16733 16218 15961 15703 15703 15961 16475 16990 17505 18278 19050 20080 21368 22398 23685 24972 26260 27548 28835 30122 31409 32439 33727 35015 36045 37074 37847 38877 39649 40165 40937 41452 41967 42224 42739 42996 43254 43511 43511 43769 43769 44027 44284 44284 44541 44798 45056 45314 45829 46086 46602 47117 47631 48146 48661 49177 49691 50464 50979 51493 52266 52781 53296 53554 54069 54326 54583 54583 54583 54583 54326 54069 53554 53039 52266 51493 50464 49434 48146 46859 45571 44027 42482 40680 39134 37332 35530 33727 31924 30380 28577 27033 25487 
23427 21883 20596 19565 18278 17505 16733 15961 15703 15446 15188 15188 15446 15961 16475 16990 17763 18792 19823 20853 22140 23170 24458 26002 27290 28577 29864 31152 32439 33727 34757 36045 37074 38104 38877 39649 40422 41194 41709 42224 42739 42996 43254 43511 43769 44027 44284 44284 44541 44798 45056 45056 45314 45571 46086 46344 46602 47117 47631 48146 48661 49177 49691 50206 50979 51493 52008 52781 53039 53554 54069 54326 54583 54841 54841 54841 54841 54583 54326 53812 53296 52524 51493 50464 49434 48146 46859 45571 44027 42224 40680 38877 37074 35272 33470 31667 29864 28320 26517 24972 
22913 21625 20080 19050 17763 16990 16218 15703 15188 14930 14673 14673 14930 15446 15961 16475 17505 18278 19308 20596 21625 22913 24200 25745 27033 28320 29864 31152 32439 33727 35015 36045 37074 38361 39134 39907 40680 41452 41967 42739 42996 43511 43769 44027 44284 44541 44798 45056 45056 45314 45571 45829 46086 46344 46602 46859 47374 47631 48146 48661 49177 49691 50206 50721 51493 52008 52524 53039 53554 54069 54326 54841 55099 55099 55099 55099 55099 54841 54326 53812 53296 52524 51493 50464 49434 48146 46859 45314 43769 42224 40422 38619 36817 35015 33212 31409 29607 27805 26260 24458 
22656 21111 19823 18535 17505 16475 15703 15188 14673 14416 14416 14416 14673 15188 15703 16218 17248 18021 19050 20338 21625 22913 24200 25487 27033 28320 29864 31152 32439 33985 35015 36302 37332 38619 39392 40422 41194 41967 42482 42996 43511 44027 44284 44798 45056 45314 45314 45571 45829 46086 46086 46344 46602 46859 47117 47631 47889 48404 48661 49177 49691 50206 50721 51236 52008 52524 53039 53554 54069 54326 54841 55099 55356 55356 55356 55356 55356 55099 54583 54069 53296 52524 51751 50721 49434 48146 46859 45314 43769 41967 40422 38619 36559 34757 32955 31152 29350 27548 26002 24200 
22398 20853 19565 18278 17248 16218 15446 14930 14416 14159 14159 14159 14416 14930 15446 15961 16990 17763 19050 20080 21368 22656 24200 25487 27033 28577 29864 31409 32697 33985 35272 36559 37847 38877 39907 40680 41709 42482 42996 43769 44284 44541 45056 45314 45571 45829 46086 46344 46344 46602 46859 47117 47374 47631 47889 48146 48404 48919 49434 49691 50206 50721 51236 51751 52266 52781 53296 53812 54326 54841 55099 55356 55614 55614 55614 55614 55356 55099 54583 54069 53554 52524 51751 50721 49434 48146 46602 45314 43511 41967 40165 38361 36559 34757 32697 30895 29093 27290 25487 23943 
22140 20596 19308 18021 16990 15961 15188 14673 14159 13901 13901 13901 14159 14673 15188 15961 16733 17763 18792 20080 21368 22913 24200 25745 27033 28577 30122 31667 32955 34500 35787 37074 38104 39392 40422 41194 42224 42996 43769 44284 44798 45314 45571 46086 46344 46602 46859 46859 47117 47374 47631 47631 47889 48146 48404 48919 49177 49434 49949 50206 50721 51236 51751 52266 52781 53296 53812 54326 54583 55099 55356 55614 55614 55871 55871 55614 55614 55099 54841 54326 53554 52781 51751 50464 49434 48146 46602 45056 43511 41709 39907 38104 36302 34500 32697 30637 28835 27033 25487 23685 
