P2
50 50
65535
54347 53389 51471 50511 48594 46676 44758 41881 39963 37086 35169 32292 30374 28455 26538 24620 22702 20784 19826 18866 17908 17908 17908 17908 18866 18866 20784 21743 22702 25579 26538 29414 31333 33251 36127 38045 40922 42840 44758 47635 49553 50511 52429 53389 54347 55307 55307 55307 55307 55307 
54347 53389 52429 50511 48594 46676 44758 42840 39963 38045 35169 33251 30374 28455 26538 24620 22702 21743 19826 18866 17908 17908 17908 17908 18866 18866 20784 21743 22702 25579 26538 29414 31333 33251 36127 38045 40922 42840 45716 47635 49553 51471 52429 54347 54347 55307 56265 56265 56265 55307 
54347 53389 52429 50511 48594 46676 44758 42840 39963 38045 35169 33251 30374 28455 26538 24620 22702 21743 19826 18866 17908 17908 17908 17908 18866 18866 20784 21743 22702 24620 26538 29414 31333 33251 36127 38045 40922 42840 45716 47635 49553 51471 52429 54347 55307 55307 56265 56265 56265 55307 
55307 53389 52429 50511 49553 47635 44758 42840 40922 38045 36127 33251 31333 28455 26538 24620 22702 21743 19826 18866 17908 17908 17908 17908 18866 18866 20784 21743 22702 24620 26538 29414 31333 33251 36127 38045 40922 42840 45716 47635 49553 51471 52429 54347 55307 56265 56265 56265 56265 55307 
55307 54347 52429 51471 49553 47635 45716 42840 40922 38045 36127 33251 31333 28455 26538 24620 22702 21743 19826 18866 17908 17908 17908 17908 17908 18866 19826 21743 22702 24620 26538 28455 31333 33251 36127 38045 40922 42840 44758 47635 49553 51471 52429 54347 55307 56265 56265 56265 56265 56265 
55307 54347 52429 51471 49553 47635 45716 42840 40922 38045 36127 33251 31333 29414 26538 24620 22702 21743 19826 18866 17908 17908 17908 17908 17908 18866 19826 20784 22702 24620 26538 28455 30374 33251 35169 38045 39963 42840 44758 47635 49553 51471 52429 54347 55307 56265 56265 56265 56265 56265 
55307 54347 52429 51471 49553 47635 45716 43798 40922 39004 36127 33251 31333 29414 26538 24620 22702 21743 19826 18866 17908 17908 17908 17908 17908 18866 19826 20784 22702 24620 26538 28455 30374 33251 35169 38045 39963 42840 44758 47635 49553 50511 52429 54347 55307 56265 56265 56265 56265 56265 
55307 54347 53389 51471 49553 47635 45716 43798 40922 39004 36127 34210 31333 29414 26538 24620 22702 21743 19826 18866 17908 17908 16948 16948 17908 18866 19826 20784 21743 23661 25579 28455 30374 32292 35169 37086 39963 42840 44758 46676 48594 50511 52429 54347 55307 56265 56265 56265 56265 56265 
55307 54347 53389 51471 49553 47635 45716 43798 40922 39004 36127 34210 31333 29414 26538 24620 22702 21743 19826 18866 17908 16948 16948 16948 17908 17908 18866 20784 21743 23661 25579 27496 29414 32292 35169 37086 39963 41881 44758 46676 48594 50511 52429 53389 54347 55307 56265 56265 56265 56265 
55307 54347 53389 51471 49553 47635 45716 43798 40922 39004 36127 34210 31333 29414 26538 24620 22702 21743 19826 18866 17908 16948 16948 16948 16948 17908 18866 19826 21743 23661 25579 27496 29414 32292 34210 37086 39004 41881 43798 46676 48594 50511 51471 53389 54347 55307 56265 56265 56265 56265 
55307 54347 53389 51471 49553 47635 45716 43798 40922 39004 36127 34210 31333 29414 26538 24620 22702 20784 19826 18866 17908 16948 16948 16948 16948 17908 18866 19826 20784 22702 24620 27496 29414 31333 34210 36127 39004 41881 43798 45716 48594 50511 51471 53389 54347 55307 56265 56265 56265 56265 
55307 54347 52429 51471 49553 47635 45716 43798 40922 39004 36127 34210 31333 29414 26538 24620 22702 20784 19826 17908 16948 16948 16948 15990 16948 16948 17908 19826 20784 22702 24620 26538 28455 31333 33251 36127 38045 40922 42840 45716 47635 49553 51471 52429 54347 55307 55307 56265 56265 55307 
54347 53389 52429 51471 49553 47635 45716 43798 40922 39004 36127 34210 31333 29414 26538 24620 22702 20784 19826 17908 16948 16948 15990 15990 16948 16948 17908 18866 20784 22702 23661 26538 28455 30374 33251 35169 38045 40922 42840 45716 47635 49553 50511 52429 53389 54347 55307 55307 55307 55307 
54347 53389 52429 50511 49553 47635 45716 42840 40922 38045 36127 33251 31333 28455 26538 24620 22702 20784 18866 17908 16948 15990 15990 15990 15990 16948 17908 18866 19826 21743 23661 25579 27496 30374 32292 35169 38045 39963 42840 44758 46676 48594 50511 52429 53389 54347 55307 55307 55307 55307 
54347 53389 52429 50511 49553 47635 45716 42840 40922 38045 36127 33251 31333 28455 26538 24620 22702 20784 18866 17908 16948 15990 15990 15990 15990 15990 16948 18866 19826 21743 23661 25579 27496 30374 32292 34210 37086 39963 41881 44758 46676 48594 50511 51471 53389 54347 54347 55307 55307 54347 
53389 53389 51471 50511 48594 46676 44758 42840 40922 38045 36127 33251 30374 28455 26538 23661 21743 20784 18866 17908 16948 15990 15030 15030 15990 15990 16948 17908 18866 20784 22702 24620 26538 29414 32292 34210 37086 39004 41881 43798 45716 47635 49553 51471 52429 53389 54347 54347 54347 54347 
53389 52429 51471 50511 48594 46676 44758 42840 39963 38045 35169 33251 30374 28455 26538 23661 21743 19826 18866 16948 15990 15990 15030 15030 15030 15990 16948 17908 18866 20784 22702 24620 26538 29414 31333 34210 36127 39004 40922 43798 45716 47635 49553 50511 52429 53389 54347 54347 54347 54347 
53389 52429 51471 49553 48594 46676 44758 42840 39963 38045 35169 33251 30374 28455 25579 23661 21743 19826 18866 16948 15990 15030 15030 15030 15030 15030 15990 17908 18866 20784 21743 23661 26538 28455 31333 33251 36127 38045 40922 42840 44758 46676 48594 50511 51471 52429 53389 53389 54347 53389 
52429 52429 50511 49553 47635 45716 43798 41881 39963 37086 35169 32292 30374 27496 25579 23661 21743 19826 17908 16948 15990 15030 15030 15030 15030 15030 15990 16948 17908 19826 21743 23661 25579 28455 30374 33251 35169 38045 39963 42840 44758 46676 48594 49553 51471 52429 53389 53389 53389 53389 
52429 51471 50511 49553 47635 45716 43798 41881 39963 37086 35169 32292 30374 27496 25579 23661 21743 19826 17908 16948 15990 15030 15030 14072 15030 15030 15990 16948 17908 19826 21743 23661 25579 27496 30374 32292 35169 37086 39963 41881 43798 45716 47635 49553 50511 51471 52429 52429 53389 52429 
52429 51471 50511 48594 47635 45716 43798 41881 39004 37086 34210 32292 29414 27496 25579 22702 20784 19826 17908 16948 15990 15030 14072 14072 14072 15030 15990 16948 17908 19826 20784 22702 25579 27496 29414 32292 34210 37086 39004 41881 43798 45716 47635 49553 50511 51471 52429 52429 52429 52429 
51471 50511 49553 48594 46676 44758 42840 40922 39004 36127 34210 32292 29414 27496 24620 22702 20784 18866 17908 15990 15030 15030 14072 14072 14072 14072 15030 15990 17908 18866 20784 22702 24620 27496 29414 31333 34210 37086 39004 40922 42840 45716 46676 48594 49553 50511 51471 52429 52429 52429 
51471 50511 49553 47635 46676 44758 42840 40922 39004 36127 34210 31333 29414 27496 24620 22702 20784 18866 17908 15990 15030 14072 14072 14072 14072 14072 15030 15990 16948 18866 20784 22702 24620 26538 29414 31333 34210 36127 39004 40922 42840 44758 46676 48594 49553 50511 51471 51471 51471 51471 
50511 50511 48594 47635 46676 44758 42840 40922 38045 36127 34210 31333 29414 26538 24620 22702 20784 18866 16948 15990 15030 14072 14072 14072 14072 14072 15030 15990 16948 18866 20784 22702 24620 26538 29414 31333 34210 36127 38045 40922 42840 44758 46676 47635 49553 50511 51471 51471 51471 51471 
50511 49553 48594 47635 45716 43798 42840 39963 38045 36127 33251 31333 28455 26538 24620 22702 20784 18866 16948 15990 15030 14072 14072 14072 14072 14072 15030 15990 16948 18866 20784 22702 24620 26538 29414 31333 33251 36127 38045 40922 42840 44758 45716 47635 48594 50511 50511 51471 51471 51471 
50511 49553 48594 46676 45716 43798 41881 39963 38045 35169 33251 31333 28455 26538 24620 22702 20784 18866 16948 15990 15030 14072 14072 14072 14072 14072 15030 15990 16948 18866 20784 22702 24620 26538 28455 31333 33251 36127 38045 39963 41881 43798 45716 47635 48594 49553 50511 50511 50511 50511 
49553 49553 47635 46676 45716 43798 41881 39963 37086 35169 33251 30374 28455 26538 23661 21743 19826 18866 16948 15990 15030 14072 14072 14072 14072 14072 15030 15990 16948 18866 20784 22702 24620 26538 28455 31333 33251 36127 38045 39963 41881 43798 45716 47635 48594 49553 50511 50511 50511 50511 
49553 48594 47635 46676 45716 43798 41881 39963 37086 35169 33251 30374 28455 26538 23661 21743 19826 18866 16948 15990 15030 14072 14072 14072 14072 14072 15030 15990 16948 18866 20784 22702 24620 26538 28455 31333 33251 36127 38045 39963 41881 43798 45716 47635 48594 49553 49553 50511 50511 50511 
49553 48594 47635 46676 44758 42840 40922 39004 37086 35169 32292 30374 28455 25579 23661 21743 19826 18866 16948 15990 15030 14072 14072 14072 14072 14072 15030 15990 17908 18866 20784 22702 24620 26538 29414 31333 33251 36127 38045 39963 41881 43798 45716 46676 48594 49553 49553 50511 50511 50511 
49553 48594 47635 45716 44758 42840 40922 39004 37086 35169 32292 30374 28455 25579 23661 21743 19826 18866 16948 15990 15030 14072 14072 14072 14072 15030 15030 15990 17908 18866 20784 22702 24620 26538 29414 31333 33251 36127 38045 39963 41881 43798 45716 46676 48594 49553 49553 50511 50511 49553 
49553 48594 47635 45716 44758 42840 40922 39004 37086 34210 32292 30374 27496 25579 23661 21743 19826 18866 16948 15990 15030 14072 14072 14072 14072 15030 15990 16948 17908 19826 20784 22702 24620 27496 29414 31333 34210 36127 38045 39963 41881 43798 45716 46676 48594 49553 49553 49553 50511 49553 
49553 48594 47635 45716 44758 42840 40922 39004 37086 34210 32292 30374 27496 25579 23661 21743 19826 18866 16948 15990 15030 14072 14072 14072 14072 15030 15990 16948 17908 19826 21743 23661 25579 27496 29414 31333 34210 36127 38045 40922 42840 43798 45716 47635 48594 49553 49553 49553 50511 49553 
49553 48594 47635 45716 44758 42840 40922 39004 36127 34210 32292 30374 27496 25579 23661 21743 19826 18866 16948 15990 15030 15030 14072 14072 15030 15030 15990 16948 17908 19826 21743 23661 25579 27496 29414 32292 34210 36127 39004 40922 42840 44758 45716 47635 48594 49553 49553 49553 50511 49553 
49553 48594 47635 45716 44758 42840 40922 39004 36127 34210 32292 30374 27496 25579 23661 21743 19826 18866 16948 15990 15030 15030 15030 15030 15030 15030 15990 16948 18866 20784 21743 23661 25579 28455 30374 32292 34210 37086 39004 40922 42840 44758 45716 47635 48594 49553 49553 50511 50511 49553 
49553 48594 47635 45716 44758 42840 40922 39004 36127 34210 32292 30374 27496 25579 23661 21743 19826 18866 16948 15990 15030 15030 15030 15030 15030 15990 16948 17908 18866 20784 22702 24620 26538 28455 30374 32292 35169 37086 39004 40922 42840 44758 46676 47635 48594 49553 50511 50511 50511 49553 
49553 48594 47635 45716 44758 42840 40922 39004 36127 34210 32292 30374 27496 25579 23661 21743 19826 18866 17908 15990 15990 15030 15030 15030 15030 15990 16948 17908 18866 20784 22702 24620 26538 28455 31333 33251 35169 37086 39963 41881 43798 44758 46676 47635 48594 49553 50511 50511 50511 49553 
49553 48594 47635 45716 44758 42840 40922 39004 36127 34210 32292 30374 27496 25579 23661 21743 19826 18866 17908 16948 15990 15030 15030 15030 15990 15990 16948 17908 19826 21743 22702 24620 26538 29414 31333 33251 36127 38045 39963 41881 43798 45716 46676 48594 49553 50511 50511 50511 50511 50511 
49553 48594 47635 45716 44758 42840 40922 39004 37086 34210 32292 30374 27496 25579 23661 21743 20784 18866 17908 16948 15990 15990 15990 15990 15990 16948 17908 18866 19826 21743 23661 25579 27496 29414 32292 34210 36127 38045 40922 42840 44758 45716 47635 48594 49553 50511 50511 50511 50511 50511 
49553 48594 47635 46676 44758 42840 40922 39004 37086 34210 32292 30374 28455 25579 23661 21743 20784 18866 17908 16948 15990 15990 15990 15990 15990 16948 17908 18866 20784 21743 23661 25579 27496 30374 32292 34210 37086 39004 40922 42840 44758 46676 47635 48594 49553 50511 51471 51471 51471 50511 
50511 49553 47635 46676 44758 42840 40922 39004 37086 35169 32292 30374 28455 26538 24620 22702 20784 19826 17908 16948 16948 15990 15990 15990 16948 16948 17908 19826 20784 22702 24620 26538 28455 30374 32292 35169 37086 39004 40922 43798 44758 46676 48594 49553 50511 51471 51471 51471 51471 51471 
50511 49553 48594 46676 45716 42840 40922 39004 37086 35169 32292 30374 28455 26538 24620 22702 20784 19826 17908 16948 16948 15990 15990 15990 16948 17908 18866 19826 20784 22702 24620 26538 28455 31333 33251 35169 37086 39963 41881 43798 45716 47635 48594 49553 50511 51471 51471 51471 51471 51471 
50511 49553 48594 46676 45716 43798 41881 39963 37086 35169 33251 30374 28455 26538 24620 22702 20784 19826 18866 17908 16948 16948 15990 16948 16948 17908 18866 19826 21743 23661 24620 26538 29414 31333 33251 36127 38045 39963 41881 43798 45716 47635 48594 50511 51471 51471 52429 52429 52429 51471 
51471 50511 48594 47635 45716 43798 41881 39963 38045 35169 33251 31333 28455 26538 24620 22702 21743 19826 18866 17908 16948 16948 16948 16948 16948 17908 18866 20784 21743 23661 25579 27496 29414 32292 34210 36127 38045 40922 42840 44758 46676 48594 49553 50511 51471 52429 52429 52429 52429 52429 
51471 50511 49553 47635 45716 43798 41881 39963 38045 35169 33251 31333 28455 26538 24620 22702 21743 19826 18866 17908 16948 16948 16948 16948 17908 17908 19826 20784 21743 23661 25579 27496 29414 32292 34210 36127 39004 40922 42840 44758 46676 48594 49553 51471 52429 52429 53389 53389 53389 52429 
52429 50511 49553 47635 46676 44758 42840 39963 38045 36127 33251 31333 29414 27496 25579 23661 21743 20784 18866 17908 17908 16948 16948 16948 17908 18866 19826 20784 22702 24620 25579 28455 30374 32292 35169 37086 39004 41881 43798 45716 47635 48594 50511 51471 52429 53389 53389 53389 53389 52429 
52429 51471 49553 48594 46676 44758 42840 40922 38045 36127 34210 31333 29414 27496 25579 23661 21743 20784 18866 17908 17908 16948 16948 17908 17908 18866 19826 20784 22702 24620 26538 28455 30374 33251 35169 37086 39963 41881 43798 45716 47635 49553 50511 52429 52429 53389 54347 54347 53389 53389 
52429 51471 50511 48594 47635 44758 42840 40922 39004 36127 34210 31333 29414 27496 25579 23661 21743 20784 19826 18866 17908 17908 17908 17908 17908 18866 19826 21743 22702 24620 26538 28455 30374 33251 35169 37086 39963 41881 43798 46676 48594 49553 51471 52429 53389 54347 54347 54347 54347 53389 
53389 52429 50511 49553 47635 45716 43798 40922 39004 37086 34210 32292 29414 27496 25579 23661 21743 20784 19826 18866 17908 17908 17908 17908 17908 18866 19826 21743 22702 24620 26538 28455 31333 33251 35169 38045 39963 42840 44758 46676 48594 50511 51471 52429 53389 54347 54347 54347 54347 54347 
53389 52429 51471 49553 47635 45716 43798 41881 39004 37086 34210 32292 30374 27496 25579 23661 22702 20784 19826 18866 17908 17908 17908 17908 18866 18866 20784 21743 22702 24620 26538 28455 31333 33251 36127 38045 39963 42840 44758 46676 48594 50511 51471 53389 54347 54347 55307 55307 55307 54347 
53389 52429 51471 49553 48594 45716 43798 41881 39004 37086 35169 32292 30374 28455 25579 24620 22702 20784 19826 18866 17908 17908 17908 17908 18866 18866 20784 21743 22702 25579 26538 29414 31333 33251 36127 38045 40922 42840 44758 47635 48594 50511 52429 53389 54347 55307 55307 55307 55307 54347 
